name C:/MyDriveSym/Projects/mobilecap/Data\Session20210820_0002\mocap\ForceDataProcessed\walkingTS2_forces.mot
datacolumns 19
datarows 14
range 1.09450000 1.10100000
endheader 
time	R_ground_force_vx	R_ground_force_vy	R_ground_force_vz	R_ground_force_px	R_ground_force_py	R_ground_force_pz	R_ground_torque_x	R_ground_torque_y	R_ground_torque_z	L_ground_force_vx	L_ground_force_vy	L_ground_force_vz	L_ground_force_px	L_ground_force_py	L_ground_force_pz	L_ground_torque_x	L_ground_torque_y	L_ground_torque_z	
          1.09450000	          0.00000000	          0.00000000	          0.00000000	          1.32604800	          0.00000000	         -0.10513700	          0.00000000	          0.00000000	          0.00000000	         37.45788400	        819.28787600	         47.68301900	          1.00748800	          0.00600000	         -0.24910600	          0.00000000	          6.79260000	          0.00000000	
          1.09500000	          0.00000000	          0.00000000	          0.00000000	          1.32739300	          0.00000000	         -0.10514600	          0.00000000	          0.00000000	          0.00000000	         37.65684500	        820.04104400	         47.72517000	          1.00772800	          0.00600000	         -0.24910300	          0.00000000	          6.79998000	          0.00000000	
          1.09550000	          0.00000000	          0.00000000	          0.00000000	          1.32873800	          0.00000000	         -0.10515500	          0.00000000	          0.00000000	          0.00000000	         37.85595800	        820.79200900	         47.76681700	          1.00796900	          0.00600000	         -0.24910000	          0.00000000	          6.80721900	          0.00000000	
          1.09600000	          0.00000000	          0.00000000	          0.00000000	          1.33008300	          0.00000000	         -0.10516400	          0.00000000	          0.00000000	          0.00000000	         38.05522800	        821.54067400	         47.80795500	          1.00820900	          0.00600000	         -0.24909700	          0.00000000	          6.81431600	          0.00000000	
          1.09650000	          0.00000000	          0.00000000	          0.00000000	          1.33142900	          0.00000000	         -0.10517300	          0.00000000	          0.00000000	          0.00000000	         38.25466100	        822.28694300	         47.84857500	          1.00844900	          0.00600000	         -0.24909400	          0.00000000	          6.82127200	          0.00000000	
          1.09700000	          0.00000000	          0.00000000	          0.00000000	          1.33277400	          0.00000000	         -0.10518200	          0.00000000	          0.00000000	          0.00000000	         38.45426200	        823.03071900	         47.88867200	          1.00868900	          0.00600000	         -0.24909000	          0.00000000	          6.82808600	          0.00000000	
          1.09750000	          0.00000000	          0.00000000	          0.00000000	          1.33411900	          0.00000000	         -0.10519100	          0.00000000	          0.00000000	          0.00000000	         38.65403800	        823.77190500	         47.92823900	          1.00892800	          0.00600000	         -0.24908700	          0.00000000	          6.83475700	          0.00000000	
          1.09800000	          0.00000000	          0.00000000	          0.00000000	          1.33546400	          0.00000000	         -0.10520000	          0.00000000	          0.00000000	          0.00000000	         38.85399300	        824.51040100	         47.96726700	          1.00916800	          0.00600000	         -0.24908400	          0.00000000	          6.84128700	          0.00000000	
          1.09850000	          0.00000000	          0.00000000	          0.00000000	          1.33680900	          0.00000000	         -0.10520900	          0.00000000	          0.00000000	          0.00000000	         39.05413500	        825.24610900	         48.00575100	          1.00940800	          0.00600000	         -0.24908000	          0.00000000	          6.84767500	          0.00000000	
          1.09900000	          0.00000000	          0.00000000	          0.00000000	          1.33815400	          0.00000000	         -0.10521800	          0.00000000	          0.00000000	          0.00000000	         39.25446800	        825.97892800	         48.04368400	          1.00964700	          0.00600000	         -0.24907700	          0.00000000	          6.85392000	          0.00000000	
          1.09950000	          0.00000000	          0.00000000	          0.00000000	          1.33949900	          0.00000000	         -0.10522700	          0.00000000	          0.00000000	          0.00000000	         39.45499800	        826.70875800	         48.08105800	          1.00988700	          0.00600000	         -0.24907300	          0.00000000	          6.86002400	          0.00000000	
          1.10000000	          0.00000000	          0.00000000	          0.00000000	          1.34084500	          0.00000000	         -0.10523600	          0.00000000	          0.00000000	          0.00000000	         39.65573100	        827.43549800	         48.11786500	          1.01012600	          0.00600000	         -0.24907000	          0.00000000	          6.86598500	          0.00000000	
          1.10050000	          0.00000000	          0.00000000	          0.00000000	          1.34219000	          0.00000000	         -0.10524500	          0.00000000	          0.00000000	          0.00000000	         39.85667300	        828.15904500	         48.15410000	          1.01036600	          0.00600000	         -0.24906600	          0.00000000	          6.87180500	          0.00000000	
          1.10100000	          0.00000000	          0.00000000	          0.00000000	          1.34353500	          0.00000000	         -0.10525500	          0.00000000	          0.00000000	          0.00000000	         40.05782900	        828.87929600	         48.18975400	          1.01060500	          0.00600000	         -0.24906200	          0.00000000	          6.87748200	          0.00000000	
